<svg width="44" height="46" viewBox="0 0 44 46" fill="none" xmlns="http://www.w3.org/2000/svg">
<path d="M41.4822 10.4825L22 0L2.51778 10.4825L14.9111 17.1317C16.6956 15.3333 19.2133 14.1975 22 14.1975C24.7867 14.1975 27.3044 15.3333 29.0889 17.1317L41.4822 10.4825ZM17.1111 23.6625C17.1111 21.0597 19.3111 18.93 22 18.93C24.6889 18.93 26.8889 21.0597 26.8889 23.6625C26.8889 26.2654 24.6889 28.3951 22 28.3951C19.3111 28.3951 17.1111 26.2654 17.1111 23.6625ZM19.5556 46L0 35.4938V14.5288L12.54 21.2726C12.32 22.0298 12.2222 22.8344 12.2222 23.6625C12.2222 28.0638 15.3267 31.7788 19.5556 32.82V46ZM24.4444 46V32.82C28.6733 31.7788 31.7778 28.0638 31.7778 23.6625C31.7778 22.8344 31.68 22.0298 31.46 21.2726L44 14.5288V35.4938L24.4444 46Z" fill="#52658C"/>
</svg>
