<svg width="34" height="39" viewBox="0 0 34 39" fill="none" xmlns="http://www.w3.org/2000/svg">
<path d="M3.4 35.4545C2.465 35.4545 1.66458 35.1074 0.99875 34.4131C0.332917 33.7187 0 32.8841 0 31.9091V7.09091C0 6.11591 0.332917 5.28125 0.99875 4.58693C1.66458 3.89261 2.465 3.54545 3.4 3.54545H10.54C10.9083 2.48182 11.5246 1.625 12.3888 0.975C13.2529 0.325 14.2233 0 15.3 0C16.3767 0 17.3471 0.325 18.2113 0.975C19.0754 1.625 19.6917 2.48182 20.06 3.54545H27.2C28.135 3.54545 28.9354 3.89261 29.6013 4.58693C30.2671 5.28125 30.6 6.11591 30.6 7.09091V18.9682C30.0617 18.7023 29.5092 18.4733 28.9425 18.2812C28.3758 18.0892 27.795 17.9489 27.2 17.8602V7.09091H3.4V31.9091H13.685C13.77 32.5591 13.9046 33.1795 14.0888 33.7705C14.2729 34.3614 14.4925 34.9227 14.7475 35.4545H3.4ZM3.4 30.1364V31.9091V7.09091V17.8602V17.7273V30.1364ZM6.8 28.3636H13.7275C13.8125 27.7432 13.9471 27.1375 14.1313 26.5466C14.3154 25.9557 14.5208 25.3795 14.7475 24.8182H6.8V28.3636ZM6.8 21.2727H17.17C18.0767 20.3864 19.0896 19.6477 20.2088 19.0568C21.3279 18.4659 22.525 18.067 23.8 17.8602V17.7273H6.8V21.2727ZM6.8 14.1818H23.8V10.6364H6.8V14.1818ZM15.3 5.76136C15.6683 5.76136 15.9729 5.6358 16.2138 5.38466C16.4546 5.13352 16.575 4.81591 16.575 4.43182C16.575 4.04773 16.4546 3.73011 16.2138 3.47898C15.9729 3.22784 15.6683 3.10227 15.3 3.10227C14.9317 3.10227 14.6271 3.22784 14.3863 3.47898C14.1454 3.73011 14.025 4.04773 14.025 4.43182C14.025 4.81591 14.1454 5.13352 14.3863 5.38466C14.6271 5.6358 14.9317 5.76136 15.3 5.76136ZM25.5 39C23.1483 39 21.1438 38.1358 19.4863 36.4074C17.8288 34.679 17 32.5886 17 30.1364C17 27.6841 17.8288 25.5937 19.4863 23.8653C21.1438 22.1369 23.1483 21.2727 25.5 21.2727C27.8517 21.2727 29.8563 22.1369 31.5138 23.8653C33.1713 25.5937 34 27.6841 34 30.1364C34 32.5886 33.1713 34.679 31.5138 36.4074C29.8563 38.1358 27.8517 39 25.5 39ZM24.65 35.4545H26.35V31.0227H30.6V29.25H26.35V24.8182H24.65V29.25H20.4V31.0227H24.65V35.4545Z" fill="#52658C"/>
</svg>
